<svg width="264" height="237" viewBox="0 0 264 237" fill="none" xmlns="http://www.w3.org/2000/svg">
<path fill-rule="evenodd" clip-rule="evenodd" d="M140.603 228.754C123.614 231.026 109.144 216.879 92.2319 214.093C63.9282 209.43 27.0391 228.31 7.94868 206.9C-9.47061 187.364 5.42511 153.52 17.5287 130.312C27.904 110.418 51.0759 102.194 69.3476 89.1728C80.7094 81.0758 95.5188 78.6535 104.726 68.1708C120.394 50.3304 119.762 19.419 140.603 8.0417C161.13 -3.16411 190.812 -3.08357 209.504 10.9711C228.515 25.2656 224.096 54.9866 232.587 77.2051C239.57 95.4781 260.342 111.463 255.11 130.312C249.537 150.388 222.04 154.148 207.176 168.748C197.075 178.669 192.556 192.603 182.039 202.082C169.627 213.271 157.166 226.539 140.603 228.754Z" fill="#E5FA53"/>
<mask id="mask0_1_13915" style="mask-type:alpha" maskUnits="userSpaceOnUse" x="7" y="8" width="257" height="229">
<path fill-rule="evenodd" clip-rule="evenodd" d="M148.603 236.754C131.614 239.026 117.144 224.879 100.232 222.093C71.9282 217.43 35.0391 236.31 15.9487 214.9C-1.47061 195.364 13.4251 161.52 25.5287 138.312C35.904 118.418 59.0759 110.194 77.3476 97.1728C88.7094 89.0758 103.519 86.6535 112.726 76.1708C128.394 58.3304 127.762 27.419 148.603 16.0417C169.13 4.83588 198.812 4.91641 217.504 18.971C236.515 33.2656 232.096 62.9866 240.587 85.2051C247.57 103.478 268.342 119.463 263.11 138.312C257.537 158.388 230.04 162.148 215.176 176.748C205.075 186.669 200.556 200.603 190.039 210.082C177.627 221.271 165.166 234.539 148.603 236.754Z" fill="#C4C4C4"/>
</mask>
<g mask="url(#mask0_1_13915)">
<path fill-rule="evenodd" clip-rule="evenodd" d="M132.888 221.057C115.897 223.328 101.425 209.185 84.5104 206.399C56.2028 201.737 19.3088 220.613 0.215706 199.208C-17.206 179.677 -2.30821 145.841 9.79701 122.639C20.1738 102.75 43.3488 94.5277 61.623 81.5095C72.9863 73.4144 87.7978 70.9928 97.0057 60.5126C112.677 42.6766 112.044 11.7727 132.888 0.398234C153.418 -10.8048 183.104 -10.7243 201.799 3.32688C220.812 17.6179 216.392 47.3317 224.884 69.5447C231.868 87.8133 252.643 103.794 247.41 122.639C241.837 142.71 214.336 146.469 199.47 161.065C189.368 170.983 184.848 184.915 174.33 194.391C161.916 205.577 149.454 218.842 132.888 221.057Z" stroke="#F75E01" stroke-width="4.30886"/>
<path fill-rule="evenodd" clip-rule="evenodd" d="M114.681 185.766C99.8897 187.743 87.2914 175.431 72.567 173.007C47.9245 168.949 15.8071 185.379 -0.81391 166.747C-15.98 149.745 -3.01105 120.292 7.52689 100.095C16.5601 82.7824 36.7347 75.6253 52.6428 64.2933C62.5349 57.2467 75.4287 55.1387 83.4445 46.016C97.0865 30.4901 96.5358 3.58906 114.681 -6.31218C132.553 -16.0642 158.396 -15.9941 174.67 -3.76286C191.222 8.67714 187.374 34.5423 194.766 53.8782C200.846 69.7806 218.931 83.6915 214.376 100.095C209.524 117.567 185.584 120.839 172.642 133.545C163.849 142.178 159.913 154.305 150.758 162.554C139.951 172.291 129.102 183.838 114.681 185.766Z" stroke="#F75E01" stroke-width="4.30886"/>
<path fill-rule="evenodd" clip-rule="evenodd" d="M90.5604 155.699C77.4191 157.46 66.2261 146.496 53.1441 144.336C31.2503 140.722 2.71556 155.355 -12.0515 138.761C-25.5258 123.62 -14.0035 97.3889 -4.64105 79.4019C3.38457 63.9833 21.3087 57.6093 35.4424 47.517C44.2311 41.2414 55.6866 39.3641 62.8083 31.2395C74.9285 17.4123 74.4393 -6.54555 90.5604 -15.3635C106.439 -24.0485 129.399 -23.9861 143.858 -13.0931C158.563 -2.01415 155.145 21.0211 161.713 38.2415C167.114 52.404 183.182 64.793 179.135 79.4019C174.824 94.9619 153.555 97.876 142.057 109.192C134.244 116.881 130.747 127.681 122.613 135.027C113.011 143.699 103.373 153.982 90.5604 155.699Z" stroke="#F75E01" stroke-width="4.30886"/>
</g>
</svg>
