<svg width="328" height="356" viewBox="0 0 328 356" fill="none" xmlns="http://www.w3.org/2000/svg">
<mask id="mask0_1_13572" style="mask-type:alpha" maskUnits="userSpaceOnUse" x="-120" y="-44" width="448" height="400">
<path fill-rule="evenodd" clip-rule="evenodd" d="M125.597 355.57C95.922 359.539 70.6468 334.828 41.1061 329.961C-8.33273 321.817 -72.7678 354.795 -106.114 317.397C-136.54 283.273 -110.522 224.156 -89.3799 183.619C-71.257 148.87 -30.7821 134.505 1.13345 111.76C20.9794 97.6171 46.8474 93.3861 62.929 75.0756C90.298 43.9133 89.1932 -10.0804 125.597 -29.9534C161.451 -49.5269 213.299 -49.3862 245.949 -24.8366C279.156 0.132019 271.436 52.0465 286.267 90.8561C298.464 122.774 334.748 150.695 325.609 183.619C315.875 218.687 267.845 225.254 241.881 250.756C224.239 268.085 216.344 292.425 197.975 308.982C176.293 328.525 154.528 351.701 125.597 355.57Z" fill="#C4C4C4"/>
</mask>
<g mask="url(#mask0_1_13572)">
<path fill-rule="evenodd" clip-rule="evenodd" d="M71.9091 279.847C42.2304 283.815 16.9517 259.11 -12.593 254.244C-62.0386 246.101 -126.482 279.072 -159.833 241.683C-190.264 207.567 -164.241 148.465 -143.097 107.938C-124.971 73.1973 -84.491 58.8357 -52.5711 36.0965C-32.7225 21.9566 -6.85092 17.7267 9.23288 -0.579322C36.6056 -31.734 35.5007 -85.7145 71.9091 -105.583C107.769 -125.151 159.623 -125.011 192.278 -100.467C225.489 -75.5046 217.769 -23.6028 232.602 15.1973C244.8 47.1074 281.089 75.0217 271.948 107.938C262.213 142.997 214.177 149.562 188.21 175.058C170.564 192.383 162.669 216.717 144.297 233.27C122.613 252.808 100.845 275.979 71.9091 279.847Z" stroke="white" stroke-width="5.36256"/>
<path fill-rule="evenodd" clip-rule="evenodd" d="M40.105 218.203C14.2688 221.657 -7.73698 200.152 -33.4565 195.917C-76.5002 188.829 -132.6 217.529 -161.633 184.983C-188.124 155.286 -165.471 103.839 -147.064 68.5605C-131.285 38.3197 -96.0457 25.8183 -68.2585 6.02435C-50.9797 -6.28404 -28.4578 -9.96609 -14.4564 -25.9011C9.37229 -53.0205 8.41043 -100.009 40.105 -117.304C71.3219 -134.338 116.463 -134.216 144.889 -112.851C173.801 -91.1217 167.08 -45.9424 179.992 -12.1679C190.612 15.6091 222.202 39.9078 214.245 68.5605C205.77 99.0785 163.953 104.794 141.348 126.987C125.987 142.068 119.114 163.25 103.121 177.659C84.244 194.667 65.2943 214.836 40.105 218.203Z" stroke="white" stroke-width="5.36256"/>
<path fill-rule="evenodd" clip-rule="evenodd" d="M-2.02395 165.687C-24.9782 168.762 -44.5294 149.61 -67.38 145.838C-105.622 139.526 -155.465 165.086 -181.259 136.101C-204.795 109.653 -184.668 63.8344 -168.315 32.4161C-154.296 5.48395 -122.988 -5.6497 -98.3 -23.278C-82.9486 -34.2398 -62.9389 -37.519 -50.4993 -51.7105C-29.3286 -75.8628 -30.1831 -117.71 -2.02395 -133.113C25.7108 -148.283 65.8164 -148.174 91.0719 -129.147C116.758 -109.795 110.787 -69.5591 122.259 -39.4798C131.694 -14.7419 159.761 6.89828 152.691 32.4161C145.162 59.5951 108.01 64.6852 87.9256 84.4505C74.2785 97.8812 68.1718 116.746 53.9628 129.578C37.1915 144.725 20.3556 162.688 -2.02395 165.687Z" stroke="white" stroke-width="5.36256"/>
</g>
</svg>
